<svg xmlns="http://www.w3.org/2000/svg" version="1.1" xmlns:xlink="http://www.w3.org/1999/xlink" width="1000" height="1000"><g clip-path="url(#SvgjsClipPath1072)"><rect width="1000" height="1000" fill="#ffffff"></rect><g transform="matrix(1.953125,0,0,1.953125,0,0)"><svg xmlns="http://www.w3.org/2000/svg" version="1.1" xmlns:xlink="http://www.w3.org/1999/xlink" width="512" height="512"><svg width="512" height="512" viewBox="0 0 512 512" fill="none" xmlns="http://www.w3.org/2000/svg">
<rect width="512" height="512" fill="#1E1E1E"></rect>
<rect width="512" height="512" fill="#0EA5E9"></rect>
<path d="M214.728 154.824C211.997 154.483 208.84 154.312 205.256 154.312C201.843 154.312 197.576 154.653 192.456 155.336C187.507 156.019 182.301 157.128 176.84 158.664C171.549 160.029 167.197 162.248 163.784 165.32C160.371 168.392 158.664 172.147 158.664 176.584C158.664 180.851 161.224 184.691 166.344 188.104C171.635 191.347 177.949 194.419 185.288 197.32C192.627 200.051 199.965 203.208 207.304 206.792C214.813 210.376 221.128 215.667 226.248 222.664C231.539 229.491 234.184 237.768 234.184 247.496C234.184 264.733 225.907 279.411 209.352 291.528C192.968 303.475 172.232 309.448 147.144 309.448C134.515 309.448 125.128 308.765 118.984 307.4C117.448 305.864 116.68 296.733 116.68 280.008C116.68 263.112 117.021 252.957 117.704 249.544C118.216 248.008 121.203 246.131 126.664 243.912C132.125 241.693 137.416 240.584 142.536 240.584C142.536 260.723 144.669 272.925 148.936 277.192C150.643 278.899 153.885 279.752 158.664 279.752C169.587 279.752 179.059 276.68 187.08 270.536C195.272 264.392 199.368 257.139 199.368 248.776C199.368 243.144 196.723 238.195 191.432 233.928C186.141 229.661 179.656 225.992 171.976 222.92C164.467 219.677 156.957 216.349 149.448 212.936C141.939 209.352 135.539 204.488 130.248 198.344C124.957 192.2 122.312 184.947 122.312 176.584C122.312 164.125 129.736 152.776 144.584 142.536C159.603 132.125 181.277 126.92 209.608 126.92C216.264 126.92 220.019 127.347 220.872 128.2C221.043 128.712 221.128 129.992 221.128 132.04C221.128 133.917 220.531 137.672 219.336 143.304C218.141 148.936 216.605 152.776 214.728 154.824Z" fill="white"></path>
<path d="M272.64 366.88L275.456 247.328C275.456 235.211 275.029 228.555 274.176 227.36C273.323 225.995 271.787 222.752 269.568 217.632C267.349 212.341 266.24 208.928 266.24 207.392C266.24 206.709 267.947 205.771 271.36 204.576C280.576 201.163 288.683 199.456 295.68 199.456C302.848 199.456 306.603 199.712 306.944 200.224C307.285 200.565 307.456 203.893 307.456 210.208C307.456 216.352 307.029 232.224 306.176 257.824C306.176 258.848 306.347 259.36 306.688 259.36C307.029 259.36 307.456 259.019 307.968 258.336C317.525 245.707 329.045 232.053 342.528 217.376C356.011 202.528 364.117 195.104 366.848 195.104C369.749 195.104 373.419 196.043 377.856 197.92C382.293 199.797 385.963 201.845 388.864 204.064C391.936 206.112 393.472 207.477 393.472 208.16V208.416C386.816 212.683 379.392 218.571 371.2 226.08C363.008 233.589 356.352 240.16 351.232 245.792C346.112 251.424 343.552 254.667 343.552 255.52C343.552 261.835 350.464 280.267 364.288 310.816C378.283 341.195 389.717 360.907 398.592 369.952C398.763 370.123 398.336 370.72 397.312 371.744C396.459 372.597 395.008 373.621 392.96 374.816C390.912 376.181 388.608 377.461 386.048 378.656C380.075 381.728 373.76 383.264 367.104 383.264C360.96 377.12 354.133 365.685 346.624 348.96C339.115 332.064 332.885 316.789 327.936 303.136C323.157 289.483 320.597 282.656 320.256 282.656C319.403 282.656 316.672 286.24 312.064 293.408C307.627 300.405 305.408 304.587 305.408 305.952V322.592C305.408 351.947 305.92 369.099 306.944 374.048C307.115 374.56 306.176 375.328 304.128 376.352C298.325 379.253 290.987 380.704 282.112 380.704L273.408 379.424C272.896 378.912 272.64 374.731 272.64 366.88Z" fill="white"></path>
</svg></svg></g></g><defs><clipPath id="SvgjsClipPath1072"><rect width="1000" height="1000" x="0" y="0" rx="350" ry="350"></rect></clipPath></defs></svg>